<?xml version="1.0" encoding="UTF-8" standalone="no"?>
<!-- Created with Inkscape (http://www.inkscape.org/) -->
<svg xmlns:dc="http://purl.org/dc/elements/1.1/" xmlns:cc="http://creativecommons.org/ns#" xmlns:rdf="http://www.w3.org/1999/02/22-rdf-syntax-ns#" xmlns:svg="http://www.w3.org/2000/svg" xmlns="http://www.w3.org/2000/svg" xmlns:sodipodi="http://sodipodi.sourceforge.net/DTD/sodipodi-0.dtd" xmlns:inkscape="http://www.inkscape.org/namespaces/inkscape" width="689.81805" height="473.85397" id="svg2" version="1.1" inkscape:version="0.48.4 r9939" sodipodi:docname="PolygonsSet DE.svg">
  <defs id="defs4">
    <marker inkscape:stockid="Arrow1Mend" orient="auto" refY="0" refX="0" id="Arrow1Mend" style="overflow:visible">
      <path id="path5390" d="M 0,0 5,-5 -12.5,0 5,5 0,0 z" style="fill-rule:evenodd;stroke:#000000;stroke-width:1pt;marker-start:none" transform="matrix(-0.4,0,0,-0.4,-4,0)" inkscape:connector-curvature="0"/>
    </marker>
    <inkscape:perspective sodipodi:type="inkscape:persp3d" inkscape:vp_x="0 : 526.18109 : 1" inkscape:vp_y="0 : 1000 : 0" inkscape:vp_z="744.09448 : 526.18109 : 1" inkscape:persp3d-origin="372.04724 : 350.78739 : 1" id="perspective10"/>
    <inkscape:perspective id="perspective2831" inkscape:persp3d-origin="0.5 : 0.33333333 : 1" inkscape:vp_z="1 : 0.5 : 1" inkscape:vp_y="0 : 1000 : 0" inkscape:vp_x="0 : 0.5 : 1" sodipodi:type="inkscape:persp3d"/>
    <inkscape:perspective id="perspective2856" inkscape:persp3d-origin="0.5 : 0.33333333 : 1" inkscape:vp_z="1 : 0.5 : 1" inkscape:vp_y="0 : 1000 : 0" inkscape:vp_x="0 : 0.5 : 1" sodipodi:type="inkscape:persp3d"/>
    <inkscape:perspective id="perspective2856-1" inkscape:persp3d-origin="0.5 : 0.33333333 : 1" inkscape:vp_z="1 : 0.5 : 1" inkscape:vp_y="0 : 1000 : 0" inkscape:vp_x="0 : 0.5 : 1" sodipodi:type="inkscape:persp3d"/>
    <inkscape:perspective id="perspective4581" inkscape:persp3d-origin="0.5 : 0.33333333 : 1" inkscape:vp_z="1 : 0.5 : 1" inkscape:vp_y="0 : 1000 : 0" inkscape:vp_x="0 : 0.5 : 1" sodipodi:type="inkscape:persp3d"/>
    <inkscape:perspective id="perspective5169" inkscape:persp3d-origin="0.5 : 0.33333333 : 1" inkscape:vp_z="1 : 0.5 : 1" inkscape:vp_y="0 : 1000 : 0" inkscape:vp_x="0 : 0.5 : 1" sodipodi:type="inkscape:persp3d"/>
    <inkscape:perspective id="perspective5834" inkscape:persp3d-origin="0.5 : 0.33333333 : 1" inkscape:vp_z="1 : 0.5 : 1" inkscape:vp_y="0 : 1000 : 0" inkscape:vp_x="0 : 0.5 : 1" sodipodi:type="inkscape:persp3d"/>
    <marker inkscape:stockid="Arrow1Mend" orient="auto" refY="0" refX="0" id="Arrow1Mend-9" style="overflow:visible">
      <path id="path5390-1" d="M 0,0 5,-5 -12.5,0 5,5 0,0 z" style="fill-rule:evenodd;stroke:#000000;stroke-width:1pt;marker-start:none" transform="matrix(-0.4,0,0,-0.4,-4,0)" inkscape:connector-curvature="0"/>
    </marker>
  </defs>
  <sodipodi:namedview id="base" pagecolor="#ffffff" bordercolor="#666666" borderopacity="1.0" inkscape:pageopacity="0.0" inkscape:pageshadow="2" inkscape:zoom="1.4" inkscape:cx="349.78162" inkscape:cy="227.30028" inkscape:document-units="px" inkscape:current-layer="layer1" showgrid="false" inkscape:window-width="1916" inkscape:window-height="1057" inkscape:window-x="0" inkscape:window-y="19" inkscape:window-maximized="1" fit-margin-left="20" fit-margin-top="20" fit-margin-bottom="20" fit-margin-right="20"/>
  <metadata id="metadata7">
    <rdf:RDF>
      <cc:Work rdf:about="">
        <dc:format>image/svg+xml</dc:format>
        <dc:type rdf:resource="http://purl.org/dc/dcmitype/StillImage"/>
        <dc:title/>
      </cc:Work>
    </rdf:RDF>
  </metadata>
  <g inkscape:label="Layer 1" inkscape:groupmode="layer" id="layer1" transform="translate(-86.035683,-18.776482)">
    <path style="color:#000000;fill:#e6f0fa;fill-opacity:1;fill-rule:nonzero;stroke:#000000;stroke-width:3.75;stroke-linecap:round;stroke-linejoin:round;stroke-miterlimit:4;stroke-opacity:1;stroke-dasharray:none;stroke-dashoffset:0.6;marker:none;visibility:visible;display:inline;overflow:visible;enable-background:accumulate" d="m 636.73339,297.27834 c 0,95.80875 -92.6988,173.47712 -207.04858,173.47712 -114.34978,0 -207.04857,-77.66837 -207.04857,-173.47712 0,-95.80879 92.69879,-173.47716 207.04857,-173.47716 114.34978,0 207.04858,77.66837 207.04858,173.47716 z" id="path5930" inkscape:connector-curvature="0"/>
    <path style="color:#000000;fill:#3cb371;fill-opacity:1;fill-rule:nonzero;stroke:#000000;stroke-width:3.75;stroke-linecap:round;stroke-linejoin:round;stroke-miterlimit:3.92857146;stroke-opacity:1;stroke-dasharray:none;stroke-dashoffset:0.6;marker:none;visibility:visible;display:inline;overflow:visible;enable-background:accumulate" d="m 485.77124,331.18296 c 0,0 -55.12774,-23.33839 -55.12774,-23.33839 0,0 47.77551,-36.07284 47.77551,-36.07284 0,0 7.35223,59.41123 7.35223,59.41123 z" id="path2816" sodipodi:nodetypes="cccc" inkscape:connector-curvature="0"/>
    <path style="color:#000000;fill:#b50000;fill-opacity:1;fill-rule:nonzero;stroke:#000000;stroke-width:3.75;stroke-linecap:round;stroke-linejoin:round;stroke-miterlimit:3.92857146;stroke-opacity:1;stroke-dasharray:none;stroke-dashoffset:0.6;marker:none;visibility:visible;display:inline;overflow:visible;enable-background:accumulate" d="m 573.89183,287.90776 c 0,0 -29.86404,-51.8834 -29.86404,-51.8834 0,0 39.53233,-5.39794 39.53233,-5.39794 0,0 -9.66829,57.28134 -9.66829,57.28134 z" id="path2816-2" sodipodi:nodetypes="cccc" inkscape:connector-curvature="0"/>
    <path style="color:#000000;fill:#ffdd77;fill-opacity:1;fill-rule:nonzero;stroke:#000000;stroke-width:3.75;stroke-linecap:round;stroke-linejoin:round;stroke-miterlimit:3.92857146;stroke-opacity:1;stroke-dasharray:none;stroke-dashoffset:0.6;marker:none;visibility:visible;display:inline;overflow:visible;enable-background:accumulate" d="m 289.02567,198.43214 5.85505,32.10833 46.59338,13.33876 -63.87231,-0.40536 11.42388,-45.04173 z" id="rect2845" sodipodi:nodetypes="ccccc" inkscape:connector-curvature="0"/>
    <path style="color:#000000;fill:#dda0dd;fill-opacity:1;fill-rule:nonzero;stroke:#000000;stroke-width:3.75;stroke-linecap:round;stroke-linejoin:round;stroke-miterlimit:3.92857146;stroke-opacity:1;stroke-dasharray:none;stroke-dashoffset:0.6;marker:none;visibility:visible;display:inline;overflow:visible;enable-background:accumulate" d="m 310.44056,327.44371 36.58313,-10.53336 22.89643,-36.27187 -88.19103,16.10985 28.71147,30.69538 z" id="rect2845-6" sodipodi:nodetypes="ccccc" inkscape:connector-curvature="0"/>
    <path style="color:#000000;fill:#364e59;fill-opacity:1;fill-rule:nonzero;stroke:#000000;stroke-width:3.75;stroke-linecap:round;stroke-linejoin:round;stroke-miterlimit:3.92857146;stroke-opacity:1;stroke-dasharray:none;stroke-dashoffset:0.6;marker:none;visibility:visible;display:inline;overflow:visible;enable-background:accumulate" d="m 361.26311,166.36915 46.33272,51.05461 -17.49757,15.87929 -46.33274,-51.05461 17.49759,-15.87929 z" id="rect2845-0" sodipodi:nodetypes="ccccc" inkscape:connector-curvature="0"/>
    <rect style="color:#000000;fill:#9ade00;fill-opacity:1;fill-rule:nonzero;stroke:#000000;stroke-width:3.75;stroke-linecap:round;stroke-linejoin:round;stroke-miterlimit:3.92857146;stroke-opacity:1;stroke-dasharray:none;stroke-dashoffset:0.6;marker:none;visibility:visible;display:inline;overflow:visible;enable-background:accumulate" id="rect2883" width="46.610107" height="46.610107" x="499.33603" y="-26.609003" transform="matrix(0.909547,0.415601,-0.415601,0.909547,0,0)"/>
    <path style="color:#000000;fill:#fd7118;fill-opacity:1;fill-rule:nonzero;stroke:#000000;stroke-width:3.75;stroke-linecap:round;stroke-linejoin:round;stroke-miterlimit:3.92857146;stroke-opacity:1;stroke-dasharray:none;stroke-dashoffset:0.6;marker:none;visibility:visible;display:inline;overflow:visible;enable-background:accumulate" d="m 442.90079,424.6673 c 0,0 -24.85188,-29.37728 -24.85188,-29.37728 0,0 20.25982,-32.71365 20.25982,-32.71365 0,0 37.37317,9.15916 37.37317,9.15916 0,0 2.83804,38.37432 2.83804,38.37432 0,0 -35.61915,14.55745 -35.61915,14.55745 z" id="path3659" sodipodi:nodetypes="cccccc" inkscape:connector-curvature="0"/>
    <path style="fill:none;stroke:#000000;stroke-width:3.75;stroke-linecap:round;stroke-linejoin:round;stroke-miterlimit:4;stroke-opacity:1;stroke-dasharray:none;marker-mid:none;marker-end:url(#Arrow1Mend)" d="m 191.02899,122.02004 55.92787,78.30234" id="path5194" inkscape:connector-curvature="0"/>
    <path style="fill:none;stroke:#000000;stroke-width:3.75;stroke-linecap:round;stroke-linejoin:round;stroke-miterlimit:4;stroke-opacity:1;stroke-dasharray:none;marker-mid:none;marker-end:url(#Arrow1Mend)" d="M 669.97873,131.2636 526.40451,201.62064" id="path5194-8" inkscape:connector-curvature="0"/>
    <path style="color:#000000;fill:#000000;fill-opacity:0.16862745;fill-rule:nonzero;stroke:#000000;stroke-width:3.75;stroke-linecap:round;stroke-linejoin:round;stroke-miterlimit:4;stroke-opacity:1;stroke-dasharray:3.75, 7.5;stroke-dashoffset:0;marker:none;visibility:visible;display:inline;overflow:visible;enable-background:accumulate" d="m 517.27875,311.82521 c -12.65274,81.80456 -47.2564,144.3257 -77.28947,139.64484 -30.03305,-4.68086 -44.12257,-74.79115 -31.46982,-156.59573 12.65274,-81.8046 47.25642,-144.32573 77.28948,-139.64486 30.03304,4.68087 44.12257,74.79116 31.46981,156.59575 z" id="path5932" inkscape:connector-curvature="0"/>
    <path style="color:#000000;fill:#4682b4;fill-opacity:1;fill-rule:nonzero;stroke:#000000;stroke-width:3.75;stroke-linecap:round;stroke-linejoin:round;stroke-miterlimit:4;stroke-opacity:1;stroke-dasharray:none;stroke-dashoffset:0.6;marker:none;visibility:visible;display:inline;overflow:visible;enable-background:accumulate" d="m 600.44125,361.32763 c -0.10412,0.22356 -34.95169,36.70781 -35.16083,36.81228 -0.20912,0.1045 -35.1529,-1.51911 -35.25791,-1.63817 -0.105,-0.11908 -0.20122,-38.22691 -0.0971,-38.45045 0.10412,-0.22356 34.95169,-36.70781 35.16084,-36.81227 0.20911,-0.10451 35.1529,1.51911 35.2579,1.63816 0.10501,0.11908 0.20122,38.22691 0.0971,38.45045 z" id="path5992" inkscape:connector-curvature="0"/>
    <path style="color:#000000;fill:#ff2a2a;fill-opacity:1;fill-rule:nonzero;stroke:#000000;stroke-width:3.75;stroke-linecap:round;stroke-linejoin:round;stroke-miterlimit:4;stroke-opacity:1;stroke-dasharray:none;stroke-dashoffset:0.6;marker:none;visibility:visible;display:inline;overflow:visible;enable-background:accumulate" d="m 355.80759,423.48925 c -0.13853,0.0633 -28.31077,-3.75967 -28.43583,-3.85873 -0.12507,-0.0991 -15.35336,-30.65508 -15.37078,-30.84191 -0.0174,-0.18683 9.16545,-34.46659 9.26879,-34.6005 0.10335,-0.13391 26.78248,-12.32406 26.92877,-12.3042 0.14628,0.0198 24.23175,19.09873 24.31083,19.2574 0.0791,0.15866 3.43402,36.13979 3.38634,36.31779 -0.0476,0.17803 -19.9496,25.96685 -20.08812,26.03015 z" id="path5995" inkscape:connector-curvature="0"/>

  </g>
</svg>
